<?xml version="1.0" encoding="iso-8859-1"?>
<!-- Uploaded to: SVG Repo, www.svgrepo.com, Generator: SVG Repo Mixer Tools -->
<svg fill="#000000" version="1.1" id="Capa_1" xmlns="http://www.w3.org/2000/svg" xmlns:xlink="http://www.w3.org/1999/xlink" 
	 viewBox="0 0 415 415" xml:space="preserve">
<g id="XMLID_526_">
	<path id="XMLID_527_" d="M292.5,295v-32.551l80,32.953V134.599l-80,32.953V135h-0.052c18.233-13.694,30.052-35.492,30.052-60
		c0-41.355-33.645-75-75-75c-27.764,0-52.034,15.176-65,37.656C169.534,15.176,145.264,0,117.5,0c-41.355,0-75,33.645-75,75
		c0,24.508,11.817,46.306,30.052,60H72.5v160h63.056L75.243,415h33.576L167.5,298.247V415h30V298.247L256.181,415h33.575
		l-60.312-120H292.5z M102.5,165h160v100h-160V165z M72.5,75c0-24.813,20.187-45,45-45s45,20.187,45,45s-20.186,45-45,45
		S72.5,99.813,72.5,75z M247.5,30c24.814,0,45,20.187,45,45s-20.186,45-45,45s-45-20.187-45-45S222.686,30,247.5,30z M302.5,195.877
		l40-16.476v71.197l-40-16.476V195.877z"/>
	<rect id="XMLID_535_" x="137.5" y="195" width="90" height="30"/>
</g>
</svg>